<?xml version="1.0"	encoding="UTF-8"	?>
<svg version="1.1"	width="30"	height="30"	xmlns="http://www.w3.org/2000/svg" image-rendering="optimizeQuality" shape-rendering="crispEdges">
<rect x="2"		y="1"	width="26"	height="27"	fill="#E0E0E0"/>
<rect x="1"		y="2"	width="28"	height="25"	fill="#E0E0E0"/>
<rect x="3"		y="28"	width="24"	height="1"	fill="#E0E0E0"/>
<rect x="2"		y="2"	width="26"	height="1"	fill="#A0A0A0"/>
<rect x="3"		y="2"	width="4"	height="1"	fill="#2020A0"/>
<rect x="7"		y="2"	width="1"	height="1"	fill="#2040C0"/>
<rect x="8"		y="2"	width="7"	height="2"	fill="#4040E0"/>
<rect x="15"	y="2"	width="1"	height="1"	fill="#2040C0"/>
<rect x="16"	y="2"	width="4"	height="1"	fill="#2020A0"/>
<rect x="20"	y="2"	width="7"	height="1"	fill="#E08000"/>
<rect x="2"		y="3"	width="3"	height="2"	fill="#2020A0"/>
<rect x="5"		y="3"	width="2"	height="1"	fill="#800000"/>
<rect x="7"		y="3"	width="1"	height="1"	fill="#2020A0"/>
<rect x="15"	y="3"	width="2"	height="3"	fill="#4040E0"/>
<rect x="17"	y="3"	width="1"	height="1"	fill="#2040C0"/>
<rect x="18"	y="3"	width="4"	height="1"	fill="#2020A0"/>
<rect x="22"	y="3"	width="1"	height="1"	fill="#E08000"/>
<rect x="23"	y="3"	width="1"	height="1"	fill="#E0E000"/>
<rect x="24"	y="3"	width="1"	height="1"	fill="#2040C0"/>
<rect x="25"	y="3"	width="2"	height="13"	fill="#2020A0"/>
<rect x="27"	y="3"	width="1"	height="1"	fill="#2040C0"/>
<rect x="5"		y="4"	width="2"	height="3"	fill="#E0A080"/>
<rect x="7"		y="4"	width="1"	height="1"	fill="#A06040"/>
<rect x="8"		y="4"	width="1"	height="1"	fill="#2020A0"/>
<rect x="9"		y="4"	width="6"	height="1"	fill="#4040E0"/>
<rect x="17"	y="4"	width="2"	height="5"	fill="#4040E0"/>
<rect x="19"	y="4"	width="1"	height="1"	fill="#2040C0"/>
<rect x="20"	y="4"	width="5"	height="1"	fill="#2020A0"/>
<rect x="27"	y="4"	width="1"	height="4"	fill="#2020A0"/>
<rect x="2"		y="5"	width="1"	height="1"	fill="#2020A0"/>
<rect x="3"		y="5"	width="1"	height="1"	fill="#2040C0"/>
<rect x="4"		y="5"	width="1"	height="2"	fill="#2020A0"/>
<rect x="7"		y="5"	width="1"	height="3"	fill="#E0A080"/>
<rect x="8"		y="5"	width="1"	height="1"	fill="#A06040"/>
<rect x="9"		y="5"	width="1"	height="1"	fill="#2040C0"/>
<rect x="10"	y="5"	width="2"	height="1"	fill="#4040E0"/>
<rect x="12"	y="5"	width="3"	height="3"	fill="#6060E0"/>
<rect x="19"	y="5"	width="1"	height="11"	fill="#4040E0"/>
<rect x="20"	y="5"	width="1"	height="1"	fill="#2040C0"/>
<rect x="21"	y="5"	width="4"	height="1"	fill="#2020A0"/>
<rect x="2"		y="6"	width="1"	height="1"	fill="#2040C0"/>
<rect x="3"		y="6"	width="1"	height="12"	fill="#4040E0"/>
<rect x="8"		y="6"	width="1"	height="1"	fill="#E0A080"/>
<rect x="9"		y="6"	width="1"	height="1"	fill="#A06040"/>
<rect x="10"	y="6"	width="1"	height="1"	fill="#4040E0"/>
<rect x="11"	y="6"	width="1"	height="2"	fill="#6060E0"/>
<rect x="15"	y="6"	width="1"	height="6"	fill="#6060E0"/>
<rect x="16"	y="6"	width="1"	height="1"	fill="#4040E0"/>
<rect x="20"	y="6"	width="1"	height="9"	fill="#4040E0"/>
<rect x="21"	y="6"	width="1"	height="1"	fill="#2040C0"/>
<rect x="22"	y="6"	width="3"	height="1"	fill="#2020A0"/>
<rect x="2"		y="7"	width="1"	height="10"	fill="#4040E0"/>
<rect x="4"		y="7"	width="1"	height="1"	fill="#2040C0"/>
<rect x="5"		y="7"	width="1"	height="1"	fill="#A06040"/>
<rect x="6"		y="7"	width="1"	height="1"	fill="#E0A080"/>
<rect x="8"		y="7"	width="2"	height="1"	fill="#4040E0"/>
<rect x="10"	y="7"	width="1"	height="1"	fill="#6060E0"/>
<rect x="16"	y="7"	width="1"	height="7"	fill="#6060E0"/>
<rect x="21"	y="7"	width="1"	height="6"	fill="#4040E0"/>
<rect x="22"	y="7"	width="1"	height="2"	fill="#2040C0"/>
<rect x="23"	y="7"	width="2"	height="2"	fill="#2020A0"/>
<rect x="4"		y="8"	width="1"	height="3"	fill="#4040E0"/>
<rect x="5"		y="8"	width="1"	height="1"	fill="#2020A0"/>
<rect x="6"		y="8"	width="1"	height="1"	fill="#A06040"/>
<rect x="7"		y="8"	width="2"	height="1"	fill="#4040E0"/>
<rect x="9"		y="8"	width="1"	height="1"	fill="#2040C0"/>
<rect x="10"	y="8"	width="2"	height="1"	fill="#2020A0"/>
<rect x="12"	y="8"	width="1"	height="1"	fill="#2040C0"/>
<rect x="13"	y="8"	width="2"	height="1"	fill="#6060E0"/>
<rect x="27"	y="8"	width="1"	height="1"	fill="#2040C0"/>
<rect x="5"		y="9"	width="3"	height="1"	fill="#4040E0"/>
<rect x="8"		y="9"	width="1"	height="1"	fill="#2040C0"/>
<rect x="9"		y="9"	width="1"	height="1"	fill="#808080"/>
<rect x="10"	y="9"	width="1"	height="1"	fill="#A0A0A0"/>
<rect x="11"	y="9"	width="1"	height="1"	fill="#808080"/>
<rect x="12"	y="9"	width="1"	height="1"	fill="#2020A0"/>
<rect x="13"	y="9"	width="1"	height="1"	fill="#2040C0"/>
<rect x="14"	y="9"	width="1"	height="1"	fill="#6060E0"/>
<rect x="17"	y="9"	width="1"	height="6"	fill="#6060E0"/>
<rect x="18"	y="9"	width="1"	height="3"	fill="#4040E0"/>
<rect x="22"	y="9"	width="1"	height="2"	fill="#4040E0"/>
<rect x="23"	y="9"	width="1"	height="2"	fill="#2040C0"/>
<rect x="24"	y="9"	width="1"	height="1"	fill="#2020A0"/>
<rect x="27"	y="9"	width="1"	height="1"	fill="#E08000"/>
<rect x="5"		y="10"	width="1"	height="1"	fill="#6060E0"/>
<rect x="6"		y="10"	width="2"	height="1"	fill="#4040E0"/>
<rect x="8"		y="10"	width="1"	height="1"	fill="#A0A0A0"/>
<rect x="12"	y="10"	width="1"	height="1"	fill="#A0A0A0"/>
<rect x="13"	y="10"	width="1"	height="1"	fill="#2020A0"/>
<rect x="14"	y="10"	width="1"	height="1"	fill="#4040E0"/>
<rect x="24"	y="10"	width="1"	height="1"	fill="#2040C0"/>
<rect x="27"	y="10"	width="1"	height="17"	fill="#E0E000"/>
<rect x="4"		y="11"	width="1"	height="3"	fill="#6060E0"/>
<rect x="6"		y="11"	width="1"	height="6"	fill="#4040E0"/>
<rect x="7"		y="11"	width="1"	height="1"	fill="#6060E0"/>
<rect x="13"	y="11"	width="1"	height="1"	fill="#A0A0A0"/>
<rect x="14"	y="11"	width="1"	height="1"	fill="#2040C0"/>
<rect x="22"	y="11"	width="1"	height="1"	fill="#2040C0"/>
<rect x="23"	y="11"	width="2"	height="1"	fill="#2020A0"/>
<rect x="5"		y="12"	width="1"	height="1"	fill="#6060E0"/>
<rect x="7"		y="12"	width="1"	height="1"	fill="#A0A0A0"/>
<rect x="9"		y="12"	width="2"	height="1"	fill="#E0E0E0"/>
<rect x="11"	y="12"	width="1"	height="1"	fill="#000000"/>
<rect x="12"	y="12"	width="1"	height="1"	fill="#A0A0A0"/>
<rect x="14"	y="12"	width="1"	height="1"	fill="#2020A0"/>
<rect x="15"	y="12"	width="1"	height="1"	fill="#4040E0"/>
<rect x="18"	y="12"	width="1"	height="4"	fill="#6060E0"/>
<rect x="22"	y="12"	width="1"	height="1"	fill="#2020A0"/>
<rect x="23"	y="12"	width="1"	height="1"	fill="#808080"/>
<rect x="24"	y="12"	width="1"	height="1"	fill="#404040"/>
<rect x="5"		y="13"	width="1"	height="4"	fill="#4040E0"/>
<rect x="10"	y="13"	width="1"	height="1"	fill="#404040"/>
<rect x="12"	y="13"	width="1"	height="5"	fill="#000000"/>
<rect x="14"	y="13"	width="1"	height="1"	fill="#A0A0A0"/>
<rect x="15"	y="13"	width="1"	height="1"	fill="#2040C0"/>
<rect x="21"	y="13"	width="1"	height="1"	fill="#2040C0"/>
<rect x="22"	y="13"	width="1"	height="1"	fill="#808080"/>
<rect x="23"	y="13"	width="1"	height="6"	fill="#A0A0A0"/>
<rect x="24"	y="13"	width="1"	height="1"	fill="#808080"/>
<rect x="4"		y="14"	width="1"	height="4"	fill="#4040E0"/>
<rect x="10"	y="14"	width="1"	height="3"	fill="#000000"/>
<rect x="14"	y="14"	width="1"	height="8"	fill="#E0E0E0"/>
<rect x="15"	y="14"	width="1"	height="1"	fill="#2020A0"/>
<rect x="16"	y="14"	width="1"	height="1"	fill="#4040E0"/>
<rect x="21"	y="14"	width="1"	height="1"	fill="#2020A0"/>
<rect x="22"	y="14"	width="1"	height="6"	fill="#A0A0A0"/>
<rect x="24"	y="14"	width="1"	height="3"	fill="#A0A0A0"/>
<rect x="11"	y="15"	width="1"	height="4"	fill="#000000"/>
<rect x="15"	y="15"	width="1"	height="1"	fill="#A0A0A0"/>
<rect x="16"	y="15"	width="1"	height="1"	fill="#2040C0"/>
<rect x="17"	y="15"	width="1"	height="1"	fill="#4040E0"/>
<rect x="20"	y="15"	width="1"	height="1"	fill="#2040C0"/>
<rect x="21"	y="15"	width="1"	height="1"	fill="#000000"/>
<rect x="7"		y="16"	width="1"	height="1"	fill="#6060E0"/>
<rect x="16"	y="16"	width="1"	height="1"	fill="#2020A0"/>
<rect x="17"	y="16"	width="1"	height="1"	fill="#2040C0"/>
<rect x="18"	y="16"	width="1"	height="1"	fill="#4040E0"/>
<rect x="19"	y="16"	width="1"	height="1"	fill="#2040C0"/>
<rect x="20"	y="16"	width="1"	height="1"	fill="#2020A0"/>
<rect x="21"	y="16"	width="1"	height="2"	fill="#404040"/>
<rect x="25"	y="16"	width="1"	height="3"	fill="#2020A0"/>
<rect x="26"	y="16"	width="1"	height="2"	fill="#E08000"/>
<rect x="2"		y="17"	width="1"	height="4"	fill="#2040C0"/>
<rect x="5"		y="17"	width="2"	height="1"	fill="#A06040"/>
<rect x="7"		y="17"	width="1"	height="1"	fill="#E0A080"/>
<rect x="10"	y="17"	width="1"	height="1"	fill="#404040"/>
<rect x="16"	y="17"	width="1"	height="1"	fill="#A0A0A0"/>
<rect x="17"	y="17"	width="3"	height="1"	fill="#2020A0"/>
<rect x="20"	y="17"	width="1"	height="1"	fill="#808080"/>
<rect x="24"	y="17"	width="1"	height="1"	fill="#808080"/>
<rect x="3"		y="18"	width="1"	height="1"	fill="#2040C0"/>
<rect x="4"		y="18"	width="1"	height="1"	fill="#A06040"/>
<rect x="8"		y="18"	width="1"	height="1"	fill="#E0A080"/>
<rect x="10"	y="18"	width="1"	height="1"	fill="#808080"/>
<rect x="12"	y="18"	width="1"	height="1"	fill="#A0A0A0"/>
<rect x="17"	y="18"	width="1"	height="1"	fill="#A0A0A0"/>
<rect x="18"	y="18"	width="1"	height="1"	fill="#808080"/>
<rect x="19"	y="18"	width="1"	height="5"	fill="#000000"/>
<rect x="20"	y="18"	width="1"	height="1"	fill="#404040"/>
<rect x="21"	y="18"	width="1"	height="1"	fill="#808080"/>
<rect x="24"	y="18"	width="1"	height="1"	fill="#404040"/>
<rect x="26"	y="18"	width="1"	height="10"	fill="#E0E000"/>
<rect x="3"		y="19"	width="1"	height="1"	fill="#800000"/>
<rect x="5"		y="19"	width="3"	height="1"	fill="#E0A080"/>
<rect x="20"	y="19"	width="1"	height="1"	fill="#000000"/>
<rect x="21"	y="19"	width="1"	height="1"	fill="#A0A0A0"/>
<rect x="23"	y="19"	width="1"	height="1"	fill="#808080"/>
<rect x="24"	y="19"	width="1"	height="2"	fill="#2020A0"/>
<rect x="25"	y="19"	width="1"	height="1"	fill="#E08000"/>
<rect x="3"		y="20"	width="1"	height="3"	fill="#A06040"/>
<rect x="4"		y="20"	width="2"	height="4"	fill="#E0A080"/>
<rect x="6"		y="20"	width="2"	height="1"	fill="#800000"/>
<rect x="8"		y="20"	width="1"	height="1"	fill="#A06040"/>
<rect x="18"	y="20"	width="1"	height="1"	fill="#A0A0A0"/>
<rect x="20"	y="20"	width="1"	height="1"	fill="#A0A0A0"/>
<rect x="22"	y="20"	width="1"	height="1"	fill="#808080"/>
<rect x="23"	y="20"	width="1"	height="1"	fill="#404040"/>
<rect x="25"	y="20"	width="1"	height="8"	fill="#E0E000"/>
<rect x="2"		y="21"	width="1"	height="6"	fill="#2020A0"/>
<rect x="6"		y="21"	width="1"	height="1"	fill="#800000"/>
<rect x="7"		y="21"	width="1"	height="2"	fill="#A06040"/>
<rect x="8"		y="21"	width="3"	height="2"	fill="#E0A080"/>
<rect x="16"	y="21"	width="2"	height="6"	fill="#E0A080"/>
<rect x="18"	y="21"	width="1"	height="1"	fill="#000000"/>
<rect x="20"	y="21"	width="1"	height="2"	fill="#000000"/>
<rect x="21"	y="21"	width="2"	height="1"	fill="#404040"/>
<rect x="23"	y="21"	width="1"	height="1"	fill="#000000"/>
<rect x="24"	y="21"	width="1"	height="2"	fill="#E08000"/>
<rect x="6"		y="22"	width="1"	height="4"	fill="#E0A080"/>
<rect x="11"	y="22"	width="5"	height="6"	fill="#E0A080"/>
<rect x="18"	y="22"	width="1"	height="1"	fill="#A06040"/>
<rect x="21"	y="22"	width="2"	height="1"	fill="#000000"/>
<rect x="23"	y="22"	width="1"	height="2"	fill="#800000"/>
<rect x="3"		y="23"	width="1"	height="1"	fill="#800000"/>
<rect x="7"		y="23"	width="1"	height="3"	fill="#E0A080"/>
<rect x="8"		y="23"	width="1"	height="1"	fill="#A06040"/>
<rect x="9"		y="23"	width="2"	height="4"	fill="#E0A080"/>
<rect x="18"	y="23"	width="1"	height="4"	fill="#E0A080"/>
<rect x="19"	y="23"	width="2"	height="1"	fill="#A06040"/>
<rect x="21"	y="23"	width="2"	height="1"	fill="#800000"/>
<rect x="24"	y="23"	width="1"	height="5"	fill="#E0E000"/>
<rect x="3"		y="24"	width="1"	height="3"	fill="#2020A0"/>
<rect x="4"		y="24"	width="1"	height="1"	fill="#A06040"/>
<rect x="5"		y="24"	width="1"	height="1"	fill="#E0A080"/>
<rect x="8"		y="24"	width="1"	height="3"	fill="#E0A080"/>
<rect x="19"	y="24"	width="1"	height="2"	fill="#E0A080"/>
<rect x="20"	y="24"	width="2"	height="2"	fill="#A06040"/>
<rect x="22"	y="24"	width="1"	height="2"	fill="#800000"/>
<rect x="23"	y="24"	width="1"	height="1"	fill="#E08000"/>
<rect x="4"		y="25"	width="1"	height="1"	fill="#800000"/>
<rect x="5"		y="25"	width="1"	height="1"	fill="#A06040"/>
<rect x="23"	y="25"	width="1"	height="3"	fill="#E0E000"/>
<rect x="4"		y="26"	width="1"	height="2"	fill="#000000"/>
<rect x="5"		y="26"	width="2"	height="1"	fill="#800000"/>
<rect x="7"		y="26"	width="1"	height="1"	fill="#A06040"/>
<rect x="19"	y="26"	width="2"	height="1"	fill="#A06040"/>
<rect x="21"	y="26"	width="1"	height="1"	fill="#800000"/>
<rect x="22"	y="26"	width="1"	height="1"	fill="#E08000"/>
<rect x="1"		y="27"	width="1"	height="1"	fill="#A0A0A0"/>
<rect x="2"		y="27"	width="1"	height="1"	fill="#E0E0E0"/>
<rect x="3"		y="27"	width="1"	height="1"	fill="#000000"/>
<rect x="5"		y="27"	width="2"	height="1"	fill="#000000"/>
<rect x="7"		y="27"	width="2"	height="1"	fill="#800000"/>
<rect x="9"		y="27"	width="2"	height="1"	fill="#A06040"/>
<rect x="16"	y="27"	width="1"	height="1"	fill="#E0A080"/>
<rect x="17"	y="27"	width="2"	height="1"	fill="#A06040"/>
<rect x="19"	y="27"	width="2"	height="1"	fill="#800000"/>
<rect x="21"	y="27"	width="1"	height="1"	fill="#E08000"/>
<rect x="22"	y="27"	width="1"	height="1"	fill="#E0E000"/>
<rect x="27"	y="27"	width="1"	height="1"	fill="#E0E0E0"/>
<rect x="28"	y="27"	width="1"	height="1"	fill="#A0A0A0"/>
<rect x="2"		y="28"	width="1"	height="1"	fill="#A0A0A0"/>
<rect x="27"	y="28"	width="1"	height="1"	fill="#A0A0A0"/>
</svg>