<?xml version="1.0"	encoding="UTF-8"?>
<svg version="1.1" width="100%" height="100%" viewBox="0 0 30 30" preserveAspectRatio="xMidYMid meet" xmlns="http://www.w3.org/2000/svg" shape-rendering="crispEdges">
	<g>
		<rect x="2" y="2" width="26" height="26" fill="#e0e000"/>
		<path d="M 2 2 L 2 1 L 28 1 L 28 2 Z M 28 2 L 29 2 L 29 27 L 28 27 Z M 28 27 L 27 27 L 27 28 L 28 28 Z M 27 28 L 27 29 L 3 29 L 3 28 Z M 3 28 L 3 27 L 2 27 L 2 28 Z M 2 27 L 1 27 L 1 2 L 2 2 Z"	fill="#e0e0e0"/>

		<g fill="#e08000">
			<path d="M 20 2 V 3 h 2 V 4 h 1 V 3 h 4 V 2 Z"/>
			<path d="M 27 9 h 1 v 1 H 27 Z m -1 7 h 1 v 2 H 26 Z m -1 3 h 1 v 1 H 25 Z m -1 2 h 1 v 2 H 24 Z m -1 3 h 1 v 1 H 23 Z m -1 4 V 26 h 1 v 1 H 21 v 1 Z"/>
		</g>
	</g>

	<path d="M 2 3 H 3 V 2 H 20 V 3 h 2 V 4 h 2 V 3 h 4 V 9 H 27 v 7 H 26 v 3 H 25 v 2 H 24 v 3 H 23 v 2 H 22 v 1 H 21 v 1 H 3 V 27 H 2 Z" fill="#2020a0"/>

	<path d="M 2 17 H 3 v 1 H 4 v 1 H 3 v 2 H 2 Z" fill="#2040c0"/>
	<path d="M 2 7 H 3 V 5 H 4 V 6 H 2 Z M 4 8 H 5 V 7 H 4 Z M 8 3 V 2 H 7 V 3 Z m 2 3 H 9 V 5 h 1 Z M 8 10 H 9 V 8 h 1 V 9 H 8 Z m 4 -1 h 2 v 1 H 13 V 8 H 12 Z m 2 2 h 1 v 1 H 14 Z m 1 2 h 1 v 1 H 15 Z m 1 2 h 1 v 2 h 1 V 16 H 16 Z m 3 2 h 1 V 15 h 1 v 1 H 19 Z m 2 -3 h 1 V 13 H 21 Z m 2 -2 H 22 V 11 h 1 Z M 22 7 h 1 V 9 H 22 V 6 H 20 V 4 H 19 V 5 h 2 V 7 Z M 18 4 H 17 V 3 h 1 Z M 16 3 H 15 V 2 h 1 Z m 8 1 h 1 V 3 H 24 Z m 3 0 h 1 V 3 H 27 Z m 0 5 h 1 V 8 H 27 Z" fill="#2040c0"/>

	<path d="M 5 18 V 17 H 7 V 11 H 8 V 9 H 9 V 8 h 4 V 9 h 1 v 2 h 1 v 2 h 1 v 2 h 1 v 1 h 1 v 1 h 1 V 16 h 1 V 15 h 1 V 13 h 1 V 11 h 1 V 9 H 22 V 7 H 21 V 6 H 20 V 5 H 19 V 4 H 17 V 3 H 15 V 2 H 8 V 4 H 9 V 5 h 1 V 7 H 8 V 8 H 7 V 9 H 5 V 8 H 4 V 18 Z" fill="#4040e0"/>
	
	<path d="M 4 14 V 11 H 6 V 10 H 5 v 2 H 6 v 1 H 5 v 1 Z" fill="#6060e0" />
	<path d="M 13 8 V 9 h 1 v 1 h 1 v 2 h 1 v 2 h 1 v 1 h 1 v 1 h 1 V 12 H 18 V 9 H 17 V 7 H 16 V 6 H 15 V 5 H 12 V 6 H 11 V 7 H 10 V 8 Z" fill="#6060e0" />
	<path d="M7 11h1v1h-1zM7 16h1v1h-1z" fill="#6060e0" />

	<path d="M 5 4 V 7 H 6 V 8 H 8 V 7 H 9 V 6 H 8 V 5 H 7 V 4 Z" fill="#e0a080"/>
	<path d="M 18 21 v 1 h 1 v 1 h 2 v 1 h 1 v 2 H 21 v 1 H 19 v 1 H 9 V 27 H 7 V 26 H 5 V 25 H 4 V 24 H 3 V 19 H 4 V 18 H 5 V 17 H 8 v 1 H 9 v 1 H 8 v 1 H 9 v 1 h 2 v 1 h 5 V 21 Z" fill="#e0a080"/>

	<path d="M 5 7 H 6 V 9 H 7 V 8 H 5 Z m 5 0 V 6 H 8 V 4 H 7 V 5 H 9 V 7 Z" fill="#a06040"/>
	<path d="M 9 21 H 7 v 2 H 9 v 1 H 8 V 20 H 9 Z" fill="#a06040"/>
	<path d="M 5 17 H 7 v 1 H 4 v 1 H 5 Z M 4 20 H 3 v 3 H 4 Z m 0 4 H 5 v 2 H 6 V 25 H 4 Z m 3 2 H 8 v 1 H 7 m 2 0 h 2 v 1 H 9 Z" fill="#a06040"/>
	<path d="M 18 23 h 3 v 1 h 1 v 2 H 21 v 1 H 17 v 1 h 2 V 26 h 1 V 24 H 19 V 22 H 18 Z" fill="#a06040"/>

	<path d="M 6 20 H 8 v 1 H 7 v 1 H 6 Z" fill="#500000"/>
	<path d="M3 19H4v1H3Zm0 4H4v1H3Zm1 2H5v2H9v1H7V26H4Zm15 2h3V24H21V23h2V22h1v2H23v2H21v2H19Z" fill="#500000"/>

	<path d="M 3 28 V 27 H 4 V 26 H 5 v 1 H 7 v 1 Z" fill="#000000"/>

	<rect x="5" y="11" width="1" height="1" fill="#e0e0e0"/>
	<path d="M 9 19 V 18 H 8 V 16 H 7 V 12 H 8 V 10 H 9 V 9 h 3 v 1 h 1 v 1 h 1 v 2 h 1 v 2 h 1 v 2 h 1 v 1 h 3 V 17 h 1 V 15 h 1 V 13 h 1 V 12 h 2 v 7 H 24 v 3 H 21 V 21 H 16 v 1 H 11 V 21 H 9 V 20 H 8 V 19 Z M 5 18 H 8 v 1 H 5 Z M 4 19 H 5 v 1 H 4 Z" fill="#e0e0e0"/>
	<path d="M 10 14 v 3 h 1 v 2 h 1 V 18 h 1 V 13 H 11 V 12 h 1 v 3 H 11 V 14 Z" fill="#000000"/>
	<path d="M 19 23 V 22 H 18 V 21 h 1 V 18 h 1 v 1 h 1 v 1 H 20 v 1 h 1 v 1 h 3 V 21 H 23 v 2 Z m 2 -7 h 1 V 15 H 21 Z" fill="#000000"/>

	<path d="M 2 2 V 3 H 3 V 2 Z M 1 27 H 2 v 2 H 3 V 28 H 1 Z m 26 2 h 1 V 27 h 1 v 1 H 27 Z M 28 2 H 27 V 3 h 1 Z" fill="#a0a0a0"/>
	<rect x="5"		y="3"	width="2"	height="1"	fill="#800000"/>
	<path d="M7 12H8V11H9V10h1V9h1v1h1v1h2v2h1v2h1v2h1v2h1V18H16V16H15V14H14V12H13V10H8v3H7Zm5 0h1v1H12Zm6 8h1v1H18Z" fill="#a0a0a0"/>
	<path d="M20 21h1V19h1V14h1V13h1v1h1v3H24v2H23v1H20Z" fill="#a0a0a0"/>
	<rect x="22"	y="13"	width="1"	height="1"	fill="#808080"/>
	<rect x="24"	y="13"	width="1"	height="1"	fill="#808080"/>
	<rect x="20"	y="17"	width="1"	height="1"	fill="#808080"/>
	<rect x="24"	y="17"	width="1"	height="1"	fill="#808080"/>
	<rect x="10"	y="18"	width="1"	height="1"	fill="#808080"/>
	<rect x="18"	y="18"	width="1"	height="1"	fill="#808080"/>
	<rect x="21"	y="18"	width="1"	height="1"	fill="#808080"/>
	<rect x="23"	y="19"	width="1"	height="1"	fill="#808080"/>
	<rect x="22"	y="20"	width="1"	height="1"	fill="#808080"/>
	<rect x="9"		y="9"	width="1"	height="1"	fill="#808080"/>
	<rect x="11"	y="9"	width="1"	height="1"	fill="#808080"/>
	<rect x="23"	y="12"	width="1"	height="1"	fill="#808080"/>
	<rect x="24"	y="12"	width="1"	height="1"	fill="#404040"/>
	<rect x="10"	y="13"	width="1"	height="1"	fill="#404040"/>
	<rect x="21"	y="16"	width="1"	height="2"	fill="#404040"/>
	<rect x="10"	y="17"	width="1"	height="1"	fill="#404040"/>
	<rect x="24"	y="18"	width="1"	height="1"	fill="#404040"/>
	<rect x="20"	y="18"	width="1"	height="1"	fill="#404040"/>
	<rect x="23"	y="20"	width="1"	height="1"	fill="#404040"/>
	<rect x="21"	y="21"	width="2"	height="1"	fill="#404040"/>
</svg>